<svg width="64" height="64" viewBox="0 0 64 64" fill="none" xmlns="http://www.w3.org/2000/svg">
  <!-- Background Circle -->
  <circle cx="32" cy="32" r="30" fill="url(#gradient1)" stroke="url(#gradient2)" stroke-width="2"/>
  
  <!-- Wallet Icon -->
  <rect x="16" y="20" width="32" height="20" rx="4" fill="white" fill-opacity="0.9"/>
  <rect x="18" y="22" width="28" height="16" rx="2" fill="url(#gradient3)"/>
  
  <!-- Card Inside Wallet -->
  <rect x="20" y="26" width="16" height="8" rx="2" fill="white" fill-opacity="0.8"/>
  
  <!-- AI Brain Symbol -->
  <circle cx="44" cy="20" r="8" fill="url(#gradient4)" stroke="white" stroke-width="2"/>
  <path d="M40 20 L44 16 L48 20 L44 24 Z" fill="white"/>
  
  <!-- Neural Network Lines -->
  <line x1="36" y1="16" x2="40" y2="20" stroke="white" stroke-width="2" opacity="0.7"/>
  <line x1="36" y1="24" x2="40" y2="20" stroke="white" stroke-width="2" opacity="0.7"/>
  <line x1="48" y1="16" x2="52" y2="20" stroke="white" stroke-width="2" opacity="0.7"/>
  <line x1="48" y1="24" x2="52" y2="20" stroke="white" stroke-width="2" opacity="0.7"/>
  
  <!-- Money Symbol -->
  <text x="32" y="50" text-anchor="middle" fill="white" font-family="Arial, sans-serif" font-size="12" font-weight="bold">﷼</text>
  
  <defs>
    <linearGradient id="gradient1" x1="0%" y1="0%" x2="100%" y2="100%">
      <stop offset="0%" style="stop-color:#667eea;stop-opacity:1" />
      <stop offset="100%" style="stop-color:#764ba2;stop-opacity:1" />
    </linearGradient>
    <linearGradient id="gradient2" x1="0%" y1="0%" x2="100%" y2="100%">
      <stop offset="0%" style="stop-color:#f093fb;stop-opacity:1" />
      <stop offset="100%" style="stop-color:#f5576c;stop-opacity:1" />
    </linearGradient>
    <linearGradient id="gradient3" x1="0%" y1="0%" x2="100%" y2="100%">
      <stop offset="0%" style="stop-color:#1e40af;stop-opacity:1" />
      <stop offset="100%" style="stop-color:#3b82f6;stop-opacity:1" />
    </linearGradient>
    <linearGradient id="gradient4" x1="0%" y1="0%" x2="100%" y2="100%">
      <stop offset="0%" style="stop-color:#f59e0b;stop-opacity:1" />
      <stop offset="100%" style="stop-color:#f97316;stop-opacity:1" />
    </linearGradient>
  </defs>
</svg>
